<svg width="191" height="55" viewBox="0 0 191 55" fill="none" xmlns="http://www.w3.org/2000/svg">
<path d="M0 0.050293C5.62857 2.56834 11.109 5.2345 16.7376 7.75254C16.7376 10.2706 16.7376 12.7886 16.7376 15.3067C13.4789 13.8255 10.2203 12.3443 6.96165 10.7149C6.96165 15.8991 6.96165 21.0834 6.96165 26.4157C10.2203 27.8969 13.4789 29.3781 16.7376 31.0074C16.7376 33.5255 16.5895 36.0435 16.7376 38.5615C11.109 36.0435 5.62857 33.3773 0 30.8593C0 20.639 0 10.4187 0 0.050293Z" fill="black"/>
<path d="M33.3273 0.050293C33.4754 10.2706 33.4754 20.639 33.4754 30.8593C27.8469 33.3773 22.3664 36.0435 16.886 38.5615C16.7379 36.0435 16.7379 33.5255 16.886 31.0074C20.1446 29.5262 23.4033 27.8969 26.81 26.4157C26.81 21.2315 26.81 15.8991 26.81 10.7149C23.5514 12.1961 20.2928 13.8255 16.886 15.3067C16.886 12.7886 16.886 10.2706 16.886 7.75254C22.2183 5.2345 27.8469 2.71646 33.3273 0.050293Z" fill="black"/>
<path d="M46.3765 0C50.8201 3.25864 55.2637 6.66541 59.7073 10.0722C64.1509 6.66541 68.5946 3.40676 73.0382 0C73.0382 10.3684 73.0382 20.5887 73.0382 30.9571C70.8164 30.9571 68.4464 30.9571 66.2246 30.9571C66.2246 25.0323 66.2246 19.2556 66.2246 13.3308C64.0028 14.9601 61.9291 16.5895 59.7073 18.2188C57.4855 16.5895 55.4119 14.9601 53.1901 13.3308C53.1901 19.2556 53.1901 25.0323 53.1901 30.9571C50.9682 30.9571 48.5983 30.9571 46.3765 30.9571C46.3765 20.5887 46.3765 10.3684 46.3765 0Z" fill="black"/>
<path d="M107.842 0.268066C109.915 0.268066 112.137 0.268066 114.211 0.268066C118.506 10.4884 122.654 20.7086 126.949 31.0771C124.579 31.0771 122.209 31.0771 119.84 31.0771C119.099 29.2996 118.506 27.5222 117.766 25.8929C114.211 25.8929 110.656 25.8929 107.101 25.8929C106.361 27.6703 105.768 29.2996 105.027 31.0771C102.658 31.0771 100.288 31.0771 97.9177 31.0771C101.769 22.1898 105.768 13.3026 109.619 4.41543C109.027 2.93423 108.434 1.60115 107.842 0.268066ZM112.434 12.4139C111.545 14.7838 110.508 17.1538 109.619 19.5237C111.545 19.5237 113.47 19.5237 115.396 19.5237C114.359 17.1538 113.322 14.7838 112.434 12.4139Z" fill="black"/>
<path d="M135.397 0.740708C138.063 0.000107169 140.877 0.148226 143.395 1.18507C142.506 3.11063 141.618 5.03619 140.877 6.81364C139.692 6.36928 138.211 5.77679 137.026 6.66551C135.693 7.85047 136.285 9.77604 136.137 11.4054H140.137C140.137 13.3309 140.137 15.2565 140.137 17.182C138.803 17.182 137.47 17.182 136.137 17.182C136.137 21.7738 136.137 26.3655 136.137 30.9572C134.064 30.9572 131.99 30.9572 129.916 30.9572C129.916 26.3655 129.916 21.7738 129.916 17.182C129.028 17.182 128.139 17.182 127.102 17.182V11.4054C127.991 11.4054 128.879 11.4054 129.916 11.4054C129.768 9.33168 129.916 7.40612 130.509 5.33243C131.397 3.11063 133.175 1.48131 135.397 0.740708Z" fill="black"/>
<path d="M82.6658 8.73911C85.9244 7.40603 89.6274 7.40602 92.8861 8.88723C94.9597 10.0722 96.8853 11.7015 98.0703 13.7752C96.2928 14.812 94.6635 15.8489 92.8861 16.8857C91.9973 14.9602 89.9237 13.6271 87.85 13.479C84.5913 13.479 81.9252 16.1451 81.9252 19.4038C81.9252 22.6624 84.5913 25.3286 87.85 25.3286C90.0718 25.1804 91.9973 23.9955 92.8861 21.9218C94.6635 22.9586 96.2928 23.9955 98.0703 25.0323C96.8853 27.106 95.1079 28.7353 93.0342 29.7722C88.5906 31.8459 83.4064 31.2534 79.5552 27.9947C76.5928 25.3286 75.1116 21.4774 75.8522 17.4782C76.4447 13.6271 79.1109 10.2203 82.6658 8.73911Z" fill="black"/>
<path d="M144.426 12.3534C148.426 7.31727 155.683 6.42855 160.868 10.1316C164.571 12.6496 165.904 17.3894 165.608 21.6849C159.979 21.6849 154.202 21.6849 148.574 21.6849C149.611 24.4992 152.425 25.9804 155.239 25.5361C156.572 25.2398 157.757 24.6473 158.646 23.6105C160.275 24.4992 162.053 25.3879 163.682 26.4248C161.905 28.4985 159.683 29.8315 157.165 30.5721C152.425 31.9052 147.389 30.2759 144.278 26.2767C141.316 22.1293 141.316 16.5007 144.426 12.3534ZM148.722 16.5007C151.98 16.5007 155.239 16.5007 158.646 16.5007C157.757 14.5752 155.98 13.2421 153.906 13.2421C151.536 13.094 149.611 14.427 148.722 16.5007Z" fill="black"/>
<path d="M169.279 13.2435C172.538 8.35552 178.759 6.57808 184.091 8.948C187.053 10.2811 189.275 12.7991 190.312 15.9096C190.905 17.8352 191.053 19.7608 190.905 21.6863C185.276 21.6863 179.499 21.6863 173.871 21.6863C174.759 24.3525 177.426 25.8337 180.24 25.5375C181.721 25.2412 183.054 24.6487 184.091 23.6119C185.72 24.5006 187.498 25.3893 189.127 26.4262C187.053 28.9442 184.091 30.5735 180.981 31.0179C176.981 31.6104 172.982 30.1292 170.168 27.0187C167.057 23.0194 166.613 17.539 169.279 13.2435ZM174.167 16.5021C177.426 16.5021 180.684 16.5021 184.091 16.5021C183.202 14.4284 181.129 13.0954 178.907 13.2435C176.685 13.2435 174.908 14.5766 174.167 16.5021Z" fill="black"/>
<path d="M46.3201 38.5098C47.0607 38.5098 47.8013 38.5098 48.5419 38.5098C48.5419 39.991 48.5419 41.4722 48.5419 42.9534C49.875 41.4722 52.2449 41.324 53.7261 42.8052C53.8742 42.9534 54.0223 43.1015 54.1704 43.2496C55.5035 45.3233 55.3554 47.9895 53.8742 49.915C52.393 51.3962 50.0231 51.3962 48.5419 49.915L48.3938 49.7669C48.3938 50.0631 48.3938 50.5075 48.3938 50.8037H46.3201C46.3201 46.6564 46.3201 42.509 46.3201 38.5098ZM49.7268 43.8421C47.8013 45.0271 48.0975 49.0263 50.7637 49.0263C52.6892 49.0263 53.2817 46.5083 52.6892 45.0271C52.393 43.9902 51.208 43.2496 50.0231 43.694C50.0231 43.694 49.875 43.8421 49.7268 43.8421Z" fill="black"/>
<path d="M70.0757 38.363H72.2975V50.657C71.5569 50.657 70.8163 50.657 70.0757 50.657V38.363Z" fill="black"/>
<path d="M100.144 38.363C100.885 38.363 101.625 38.363 102.366 38.363C102.366 41.6217 102.366 44.7322 102.366 47.9908C102.366 48.5833 103.106 48.7314 103.551 48.8796C103.551 49.472 103.551 50.0645 103.551 50.8051C102.662 50.657 101.625 50.8051 100.885 50.2127C100.292 49.472 99.9958 48.5833 100.144 47.6946C100.144 44.7322 100.144 41.6217 100.144 38.363Z" fill="black"/>
<path d="M85.332 39.5481H87.5538C87.5538 40.4368 87.5538 41.1774 87.5538 42.0661C88.1463 42.0661 88.8869 42.0661 89.4793 42.0661C89.4793 42.6586 89.4793 43.2511 89.4793 43.8436C88.8869 43.8436 88.1463 43.8436 87.5538 43.8436C87.4057 45.3248 87.5538 46.6579 87.7019 48.1391C87.9981 48.8797 89.035 48.8797 89.6275 49.0278C89.6275 49.6203 89.6275 50.3609 89.6275 50.9533C88.1463 50.9533 86.2207 50.8052 85.4801 49.1759C85.1839 47.3985 85.0357 45.7691 85.1839 43.9917C84.8876 43.9917 84.2951 43.9917 83.9989 43.9917C83.9989 43.3992 83.9989 42.8067 83.9989 42.2143C84.4433 42.2143 84.7395 42.2143 85.1839 42.2143C85.332 41.1774 85.332 40.2887 85.332 39.5481Z" fill="black"/>
<path d="M55.1155 41.918C56.0042 41.918 56.7448 41.918 57.6335 41.918C58.3741 43.9917 59.1147 46.0653 59.8553 48.139C60.4478 46.0653 61.1884 43.9917 61.929 41.918C62.8177 41.918 63.5583 41.918 64.2989 41.918C62.9658 45.3247 61.6328 48.7315 60.2997 52.1383C59.8553 53.1751 58.9666 54.0638 57.7816 54.3601H56.5967C56.1523 54.2119 55.708 54.0638 55.2636 53.9157C55.4117 53.3232 55.708 52.8789 55.8561 52.2864C56.4486 52.2864 57.1892 52.7307 57.7816 52.2864C58.226 51.842 58.5222 51.2495 58.8185 50.6571C57.6335 47.6947 56.3004 44.8804 55.1155 41.918Z" fill="black"/>
<path d="M74.6676 41.918C75.4082 41.918 76.1488 41.918 76.8894 41.918C76.8894 42.3624 76.8894 42.9549 76.7413 43.3992C77.7781 41.918 79.7037 41.3256 81.4811 42.0662C82.518 42.6586 83.1104 43.6955 82.9623 44.8804C82.9623 46.806 82.9623 48.8797 82.9623 50.8052C82.2217 50.8052 81.4811 50.8052 80.7405 50.8052C80.7405 48.7316 80.8886 46.6579 80.5924 44.7323C79.9999 43.103 77.4819 43.9917 77.0375 45.3248C76.7413 47.1022 76.5932 49.0278 76.7413 50.9534H74.6676C74.6676 47.8428 74.6676 44.8804 74.6676 41.918Z" fill="black"/>
<path d="M91.9586 42.6379C93.7361 41.1567 96.4022 41.453 97.8834 43.3785C98.4759 44.4154 98.7721 45.6003 98.624 46.9334C96.5503 46.9334 94.4767 46.9334 92.403 46.9334C92.6992 47.674 92.9955 48.5627 93.8842 49.0071C95.2173 49.4515 96.6985 49.3033 97.7353 48.4146C98.0315 49.0071 98.3278 49.4515 98.624 50.0439C96.6985 51.377 94.1804 51.5251 92.2549 50.3402C90.1812 48.7109 89.7368 45.7485 91.3661 43.5266C91.3661 43.0823 91.6624 42.786 91.9586 42.6379ZM92.5511 45.156C93.8842 45.156 95.2173 45.156 96.5503 45.156C96.2541 44.4154 95.9579 43.3785 94.921 43.3785C93.7361 43.3785 92.6992 44.1191 92.5511 45.156Z" fill="black"/>
</svg>
