<svg width="100" height="84" viewBox="0 0 100 84" fill="none" xmlns="http://www.w3.org/2000/svg">
<g id="uuid-9b96594c-3336-4424-a508-f3e0d5cedd60" clip-path="url(#clip0_1448_1925)">
<path id="Vector" d="M67.5097 17.7644C77.1608 27.1526 76.9207 41.5696 66.9335 51.2848C57.4425 60.5173 42.5737 60.5173 33.0667 51.2848C23.2555 41.7409 22.9994 27.0281 32.4745 17.7955C32.5705 17.7021 32.6825 17.6087 32.7786 17.5153L14.8208 0C14.7248 0.0934149 14.6128 0.18683 14.5167 0.280245C-5.05753 19.3213 -4.80145 49.4009 15.0929 68.7534C34.6672 87.7945 65.333 87.7945 84.9072 68.7534C104.802 49.4009 105.058 19.3058 85.4834 0.264676C85.3874 0.171261 85.2914 0.0934149 85.1953 0L67.2056 17.4997C67.3016 17.5931 67.4137 17.671 67.5097 17.7644Z" fill="black"/>
<path id="Vector_2" d="M67.2055 17.4998C57.3303 8.17389 42.6856 8.17389 32.7944 17.4998L49.9999 34.2367L67.2055 17.4998Z" fill="#FA198C"/>
</g>
<defs>
<clipPath id="clip0_1448_1925">
<rect width="100" height="83.0303" fill="white"/>
</clipPath>
</defs>
</svg>
