<svg width="100" height="100" viewBox="0 0 100 100" fill="none" xmlns="http://www.w3.org/2000/svg">
<g id="uuid-dd9946db-5b74-4577-8299-89abbd8d3e29" clip-path="url(#clip0_1448_1942)">
<g id="Group">
<path id="Vector" d="M25.5507 50C25.5507 49.8553 25.5347 49.7267 25.5347 49.582C25.5347 36.1093 36.0991 25.5466 49.606 25.5466C49.7508 25.5466 49.8794 25.5627 50.008 25.5627V0C49.8794 0 49.7347 0 49.606 0C21.7881 0 0 21.7846 0 49.582C0 49.7267 0 49.8553 0 50H25.5507Z" fill="black"/>
<path id="Vector_2" d="M74.4654 50C74.2563 63.8424 63.8527 74.2444 50.0081 74.4534V100C77.9386 99.791 99.791 77.9421 100 50H74.4493H74.4654Z" fill="black"/>
</g>
<path id="Vector_3" d="M49.8793 34.9678C41.5179 34.9678 34.9734 41.5112 34.9734 49.8713C34.9734 58.2314 41.5179 65.0321 49.8793 65.0321C58.2408 65.0321 65.0425 58.3761 65.0425 49.8713C65.0425 41.3665 58.3855 34.9678 49.8793 34.9678ZM57.3564 49.8713C57.3564 54.1318 54.1405 57.3472 49.8793 57.3472C45.6182 57.3472 42.6434 54.1318 42.6434 49.8713C42.6434 45.6109 45.8272 42.6366 49.8793 42.6366C53.9314 42.6366 57.3564 45.8199 57.3564 49.8713Z" fill="#FA198C"/>
</g>
<defs>
<clipPath id="clip0_1448_1942">
<rect width="100" height="100" fill="white"/>
</clipPath>
</defs>
</svg>
