<svg width="75" height="100" viewBox="0 0 75 100" fill="none" xmlns="http://www.w3.org/2000/svg">
<path d="M50.2097 74.4534C50.0484 74.4534 49.9032 74.4695 49.7581 74.4695C36 74.4695 25.6129 63.7781 25.6129 49.582C25.6129 36.1093 36.2097 25.5466 49.7581 25.5466C49.9194 25.5466 50.0645 25.5627 50.2097 25.5627V0C50.0645 0 49.9032 0 49.7581 0C21.8548 0 0 21.7846 0 49.582C0 77.8617 21.8548 100 49.7581 100C49.9194 100 50.0645 100 50.2097 100V74.4534Z" fill="black"/>
<path d="M50.1611 25.2412V74.775C63.8869 74.775 74.9998 63.6817 74.9998 50.0161C74.9998 36.3505 63.8869 25.2412 50.1611 25.2412Z" fill="#FA198C"/>
</svg>
